<svg width="33" height="33" viewBox="0 0 33 33" fill="none" xmlns="http://www.w3.org/2000/svg">
<path d="M16.5 -0.196228C7.27881 -0.196228 -0.196228 7.27881 -0.196228 16.5C-0.196228 25.7212 7.27881 33.1962 16.5 33.1962C25.7212 33.1962 33.1962 25.7212 33.1962 16.5C33.1962 7.27881 25.7212 -0.196228 16.5 -0.196228ZM22.9211 18.6409C22.9211 18.6409 24.3977 20.0984 24.7611 20.7749C24.7716 20.7888 24.7768 20.8027 24.7803 20.8097C24.9281 21.0584 24.9629 21.2515 24.8898 21.3958C24.7681 21.6358 24.3507 21.7541 24.2081 21.7645H21.5993C21.4184 21.7645 21.0393 21.7176 20.5801 21.401C20.2271 21.1541 19.8792 20.7488 19.5401 20.354C19.034 19.7662 18.5957 19.2583 18.154 19.2583C18.0979 19.2583 18.0421 19.2671 17.9887 19.2844C17.6548 19.3923 17.227 19.8688 17.227 21.1384C17.227 21.5349 16.9139 21.7628 16.693 21.7628H15.4982C15.0912 21.7628 12.9712 21.6202 11.0929 19.6392C8.79364 17.2131 6.72401 12.3468 6.70661 12.3016C6.57618 11.9868 6.84575 11.8181 7.13967 11.8181H9.77454C10.1259 11.8181 10.2406 12.032 10.3207 12.2216C10.4146 12.4425 10.7589 13.3208 11.3242 14.3086C12.2407 15.9191 12.8025 16.573 13.2529 16.573C13.3374 16.572 13.4203 16.5506 13.4947 16.5104C14.0825 16.1835 13.9729 14.0877 13.9469 13.6529C13.9469 13.5712 13.9451 12.7155 13.6442 12.3051C13.4286 12.0077 13.0616 11.8946 12.839 11.8529C12.9291 11.7285 13.0478 11.6277 13.1851 11.559C13.5886 11.3572 14.3156 11.3276 15.0373 11.3276H15.4391C16.2217 11.3381 16.4235 11.3885 16.707 11.4598C17.2809 11.5972 17.2931 11.9677 17.2426 13.2355C17.227 13.5955 17.2113 14.0025 17.2113 14.4825C17.2113 14.5869 17.2061 14.6982 17.2061 14.8165C17.1887 15.4617 17.1678 16.1939 17.6235 16.4948C17.6829 16.532 17.7516 16.5519 17.8218 16.5522C17.98 16.5522 18.4566 16.5522 19.7471 14.3382C20.145 13.6256 20.4909 12.885 20.7819 12.1225C20.808 12.0772 20.8845 11.9381 20.9749 11.8842C21.0417 11.8502 21.1157 11.8328 21.1906 11.8337H24.2881C24.6255 11.8337 24.8568 11.8842 24.9003 12.0146C24.9768 12.2216 24.8864 12.8529 23.4724 14.7678L22.8411 15.6008C21.5593 17.2809 21.5593 17.3661 22.9211 18.6409Z" fill="black"/>
</svg>
